<?xml version="1.0" standalone="no"?><!-- Generator: Gravit.io --><svg xmlns="http://www.w3.org/2000/svg" xmlns:xlink="http://www.w3.org/1999/xlink" style="isolation:isolate" viewBox="0 0 566.929 283.465" width="566.929" height="283.465"><radialGradient id="_rgradient_0" fx="50%" fy="50%" cx="50%" cy="50%" r="50%"><stop offset="0%" style="stop-color:rgb(0,255,255)"/><stop offset="100%" style="stop-color:rgb(7,115,63)"/></radialGradient><rect x="234.698" y="89.521" width="102.336" height="100.882" transform="matrix(0.764,0.645,-0.775,0.654,175.91,-135.998)" fill="url(#_rgradient_0)"/><path d="M 295.183 16.294 L 324.765 41.262 L 285.8 74.15 L 246.794 41.228 L 276.335 16.294 C 281.537 11.903 289.982 11.903 295.183 16.294 Z" style="stroke:none;fill:#07733F;stroke-miterlimit:10;"/><path d="M 285.493 205.655 L 324.595 238.658 L 294.917 263.708 C 289.716 268.098 281.27 268.098 276.069 263.708 L 246.392 238.658 L 285.493 205.655 Z" style="stroke:none;fill:#07733F;stroke-miterlimit:10;"/><linearGradient id="_lgradient_0" x1="0%" y1="50%" x2="100%" y2="50%"><stop offset="0%" stop-opacity="1" style="stop-color:rgb(7,115,63)"/><stop offset="100%" stop-opacity="1" style="stop-color:rgb(197,223,0)"/></linearGradient><rect x="283.928" y="90.09" width="179.088" height="50.441" transform="matrix(0.764,0.645,-0.775,0.654,177.46,-201.026)" fill="url(#_lgradient_0)"/><linearGradient id="_lgradient_1" x1="0%" y1="50%" x2="100%" y2="50%"><stop offset="0%" stop-opacity="1" style="stop-color:rgb(189,219,2)"/><stop offset="100%" stop-opacity="1" style="stop-color:rgb(7,115,63)"/></linearGradient><rect x="107.209" y="139.08" width="180.374" height="50.441" transform="matrix(0.764,0.645,-0.775,0.654,173.914,-70.521)" fill="url(#_lgradient_1)"/><defs><linearGradient id="_lgradient_2" x1="0" y1="0.5" x2="1" y2="0.5"><stop offset="0%" style="stop-color:#B7A400"/><stop offset="100%" style="stop-color:#07733F"/></linearGradient></defs><path d="M 158.965 115.417 L 247.295 40.863 L 286.397 73.866 L 198.066 148.42 C 192.865 152.81 184.42 152.81 179.218 148.42 L 158.965 131.325 C 153.763 126.935 153.763 119.807 158.965 115.417 Z" style="stroke:none;fill:url(#_lgradient_2);stroke-miterlimit:10;"/><defs><linearGradient id="_lgradient_3" x1="0" y1="0.5" x2="1" y2="0.5"><stop offset="0%" style="stop-color:#07733F"/><stop offset="100%" style="stop-color:#ABA104"/></linearGradient></defs><path d="M 285.493 205.969 L 374.542 130.808 C 379.743 126.418 388.189 126.418 393.39 130.808 L 413.644 147.903 C 418.845 152.293 418.845 159.422 413.644 163.812 L 324.595 238.972 L 285.493 205.969 Z" style="stroke:none;fill:url(#_lgradient_3);stroke-miterlimit:10;"/><defs><linearGradient id="_lgradient_4" x1="0" y1="0.5" x2="1" y2="0.5"><stop offset="0%" style="stop-color:#368D30"/><stop offset="72.02511503706752%" style="stop-color:#E3E303"/><stop offset="100%" style="stop-color:#FF9900"/></linearGradient></defs><path d="M 411.484 83.615 L 499.413 157.831 L 481.048 173.331 L 383.695 91.161 L 392.636 83.615 C 397.837 79.225 406.283 79.225 411.484 83.615 Z" style="stroke:none;fill:url(#_lgradient_4);stroke-miterlimit:10;"/><defs><linearGradient id="_lgradient_5" x1="0.009783044346480807" y1="0.3316974268291349" x2="0.991729791540447" y2="0.3150346781731926"><stop offset="0%" style="stop-color:#FE1500"/><stop offset="52.26617237934351%" style="stop-color:#FF9900"/><stop offset="100%" style="stop-color:#5EA126"/></linearGradient></defs><path d="M 71.795 123.295 L 130.953 173.227 L 101.206 198.335 C 96.005 202.725 87.559 202.725 82.358 198.335 L 32.623 156.357 L 71.795 123.295 Z" style="stroke:none;fill:url(#_lgradient_5);stroke-miterlimit:10;"/><defs><linearGradient id="_lgradient_6" x1="0" y1="0.5" x2="1" y2="0.5"><stop offset="0%" style="stop-color:#FF0000"/><stop offset="46.741926292409715%" style="stop-color:#F9A101"/><stop offset="100%" style="stop-color:#F5F902"/></linearGradient></defs><path d="M 20.902 130.428 L 80.064 80.493 C 85.265 76.103 93.711 76.103 98.912 80.493 L 110.802 90.529 L 32.792 156.372 L 20.902 146.337 C 15.701 141.947 15.701 134.818 20.902 130.428 Z" style="stroke:none;fill:url(#_lgradient_6);stroke-miterlimit:10;"/><defs><linearGradient id="_lgradient_7" x1="0" y1="0.5" x2="1" y2="0.5"><stop offset="0%" style="stop-color:#66A024"/><stop offset="56.03571759285841%" style="stop-color:#FF9100"/><stop offset="100%" style="stop-color:#FE1700"/></linearGradient></defs><path d="M 488.077 84.119 L 536.834 125.272 L 498.814 157.362 L 440.633 108.255 L 469.229 84.119 C 474.43 79.729 482.875 79.729 488.077 84.119 Z" style="stroke:none;fill:url(#_lgradient_7);stroke-miterlimit:10;"/><defs><linearGradient id="_lgradient_8" x1="0" y1="0.5" x2="1" y2="0.5"><stop offset="0%" style="stop-color:#F5F502"/><stop offset="54.676859201663234%" style="stop-color:#F9A301"/><stop offset="100%" style="stop-color:#FF1000"/></linearGradient></defs><path d="M 458.746 190.68 L 536.513 125.041 L 546.099 133.132 C 551.3 137.522 551.3 144.651 546.099 149.041 L 487.18 198.771 C 481.979 203.161 473.533 203.161 468.332 198.771 L 458.746 190.68 Z" style="stroke:none;fill:url(#_lgradient_8);stroke-miterlimit:10;"/><linearGradient id="_lgradient_9" x1="0%" y1="50%" x2="100%" y2="50%"><stop offset="0%" stop-opacity="1" style="stop-color:rgb(44,125,49)"/><stop offset="100%" stop-opacity="1" style="stop-color:rgb(255,255,0)"/></linearGradient><path d=" M 363.816 205.594 L 402.641 173.057 L 421.916 188.628 L 461.016 156.323 L 480.842 172.359 L 424.669 219.771 L 415.032 226.511 L 405.119 228.835 L 392.728 227.441 L 382.815 221.63 L 363.816 205.594 Z " fill="url(#_lgradient_9)"/><linearGradient id="_lgradient_10" x1="0%" y1="50%" x2="100%" y2="50%"><stop offset="0%" stop-opacity="1" style="stop-color:rgb(255,255,0)"/><stop offset="100%" stop-opacity="1" style="stop-color:rgb(44,125,49)"/></linearGradient><path d=" M 91.273 106.954 L 110.179 123.865 L 149.402 90.997 L 169.155 107.193 L 208.096 74.087 L 187.403 56.888 L 177.92 53.502 L 166.979 52.886 L 156.402 55.349 L 146.189 60.582" fill="url(#_lgradient_10)"/><defs><linearGradient id="_lgradient_11" x1="0" y1="0.5" x2="1" y2="0.5"><stop offset="0%" style="stop-color:#FF9900"/><stop offset="28.56147319405915%" style="stop-color:#E0E204"/><stop offset="100%" style="stop-color:#3F922E"/></linearGradient></defs><path d="M 90.843 106.831 L 188.598 189.339 L 178.471 197.886 C 173.27 202.277 164.824 202.277 159.623 197.886 L 71.293 123.332 L 90.843 106.831 Z" style="stroke:none;fill:url(#_lgradient_11);stroke-miterlimit:10;"/><g transform="matrix(1,0,0,1,63.888,97.105)"><text transform="matrix(1,0,0,1,16.171,52.828)" style="font-family:&quot;Archivo Black&quot;;font-weight:400;font-size:48px;font-style:normal;word-spacing:0.28346456692913385;fill:#ffffff;stroke:none;">R</text></g><g transform="matrix(1,0,0,1,135.567,98.555)"><text transform="matrix(1,0,0,1,17.716,52.828)" style="font-family:&quot;Archivo Black&quot;;font-weight:400;font-size:48px;font-style:normal;word-spacing:0.28346456692913385;fill:#ffffff;stroke:none;">E</text></g><g transform="matrix(1,0,0,1,208.096,98.555)"><text transform="matrix(1,0,0,1,16.444,52.828)" style="font-family:&quot;Archivo Black&quot;;font-weight:400;font-size:48px;font-style:normal;word-spacing:0.28346456692913385;fill:#ffffff;stroke:none;">F</text></g><g transform="matrix(1,0,0,1,295,98.052)"><text transform="matrix(1,0,0,1,24.068,52.828)" style="font-family:&quot;Archivo Black&quot;;font-weight:400;font-size:48px;font-style:normal;word-spacing:0.28346456692913385;fill:#ffffff;stroke:none;">I</text></g><g transform="matrix(1,0,0,1,363.816,97.105)"><text transform="matrix(1,0,0,1,17.417,52.828)" style="font-family:&quot;Archivo Black&quot;;font-weight:400;font-size:48px;font-style:normal;word-spacing:0.28346456692913385;fill:#ffffff;stroke:none;">N</text></g><g transform="matrix(1,0,0,1,441.882,98.052)"><text transform="matrix(1,0,0,1,12.92,52.828)" style="font-family:&quot;Archivo Black&quot;;font-weight:400;font-size:48px;font-style:normal;word-spacing:0.28346456692913385;fill:#ffffff;stroke:none;">E</text></g><line x1="286.608" y1="83.378" x2="286.397" y2="196.547" vector-effect="non-scaling-stroke" stroke-width="11.601" stroke="rgb(255,255,255)" stroke-linejoin="miter" stroke-linecap="square" stroke-miterlimit="3"/><line x1="286.781" y1="197.401" x2="490.298" y2="196.251" vector-effect="non-scaling-stroke" stroke-width="11.601" stroke="rgb(255,255,255)" stroke-linejoin="miter" stroke-linecap="square" stroke-miterlimit="3"/><line x1="68.483" y1="83.081" x2="286.075" y2="82.339" vector-effect="non-scaling-stroke" stroke-width="11.601" stroke="rgb(255,255,255)" stroke-linejoin="miter" stroke-linecap="square" stroke-miterlimit="3"/><line x1="330.831" y1="96.778" x2="328.819" y2="100.727" vector-effect="non-scaling-stroke" stroke-width="11.601" stroke="rgb(255,153,0)" stroke-linejoin="miter" stroke-linecap="square" stroke-miterlimit="3"/></svg>